<?xml version="1.0" encoding="UTF-8" standalone="no"?>
<!-- Created with Inkscape (http://www.inkscape.org/) -->

<svg
   xmlns:dc="http://purl.org/dc/elements/1.1/"
   xmlns:cc="http://creativecommons.org/ns#"
   xmlns:rdf="http://www.w3.org/1999/02/22-rdf-syntax-ns#"
   xmlns:svg="http://www.w3.org/2000/svg"
   xmlns="http://www.w3.org/2000/svg"
   xmlns:sodipodi="http://sodipodi.sourceforge.net/DTD/sodipodi-0.dtd"
   xmlns:inkscape="http://www.inkscape.org/namespaces/inkscape"
   width="40"
   height="40"
   viewBox="0 0 10.583333 10.583334"
   version="1.1"
   id="svg5355"
   inkscape:version="0.92.5 (2060ec1f9f, 2020-04-08)"
   sodipodi:docname="KxIcon.svg">
  <defs
     id="defs5349" />
  <sodipodi:namedview
     id="base"
     pagecolor="#ffffff"
     bordercolor="#666666"
     borderopacity="1.0"
     inkscape:pageopacity="0.0"
     inkscape:pageshadow="2"
     inkscape:zoom="11.2"
     inkscape:cx="31.388869"
     inkscape:cy="11.201151"
     inkscape:document-units="mm"
     inkscape:current-layer="layer1"
     showgrid="false"
     units="px"
     inkscape:window-width="1280"
     inkscape:window-height="968"
     inkscape:window-x="0"
     inkscape:window-y="32"
     inkscape:window-maximized="1" />
  <metadata
     id="metadata5352">
    <rdf:RDF>
      <cc:Work
         rdf:about="">
        <dc:format>image/svg+xml</dc:format>
        <dc:type
           rdf:resource="http://purl.org/dc/dcmitype/StillImage" />
        <dc:title></dc:title>
      </cc:Work>
    </rdf:RDF>
  </metadata>
  <g
     inkscape:label="Layer 1"
     inkscape:groupmode="layer"
     id="layer1"
     transform="translate(0,-286.41665)">
    <g
       id="g4172"
       inkscape:export-filename="/home/dmc/Desktop/Kx/Admin Files/KxLogo.png"
       inkscape:export-xdpi="96"
       inkscape:export-ydpi="96"
       transform="matrix(0.078125,0,0,0.078125,-20,270.65493)">
      <rect
         y="201.74997"
         x="256"
         height="135.46667"
         width="135.46667"
         id="rect1271"
         style="opacity:1;fill:#6400cc;fill-opacity:1;stroke:none;stroke-width:9.85517406;stroke-linecap:round;stroke-linejoin:round;stroke-miterlimit:4;stroke-dasharray:none;stroke-dashoffset:0;stroke-opacity:1;paint-order:stroke fill markers"
         inkscape:export-filename="/home/dmc/Escritorio/Kixne.png"
         inkscape:export-xdpi="150"
         inkscape:export-ydpi="150" />
      <g
         id="g4164">
        <path
           style="fill:#fffffb;fill-opacity:1;stroke:#000000;stroke-width:4;stroke-linecap:round;stroke-linejoin:round;stroke-miterlimit:4;stroke-dasharray:none;stroke-dashoffset:0;stroke-opacity:1;paint-order:stroke fill markers"
           d="m 260.69245,282.85986 c 24.47239,13.78564 49.14322,1.38571 53.36014,-24.00901 l 0.0599,26.54483 c 0,4.44783 10.36975,5.17968 10.36975,-0.14011 v -22.33325 c 5.47801,12.65006 10.6421,29.02415 19.85382,34.34254 5.90791,2.51049 16.05635,0.44268 16.05635,-1.62448 0,-3.70684 -3.121,1.2859 -7.76457,-2.10112 -6.88883,-7.65092 -12.84358,-23.02995 -19.41768,-37.35982 3.49178,-5.03305 8.42588,-13.15669 13.07343,-11.07774 4.33883,3.95092 5.70551,-2.3768 2.96342,-3.52536 -8.44445,-4.56867 -15.62248,6.28813 -24.79383,18.28259 0,-11.11388 1.37755,-16.877 -4.90972,-16.877 -51.17559,0 -26.66595,48.50188 -58.85098,39.87793 z"
           id="path124"
           inkscape:connector-curvature="0"
           sodipodi:nodetypes="cccccccccccccc" />
        <path
           style="fill:#ffffff;fill-opacity:1;stroke:#020000;stroke-width:4;stroke-linecap:round;stroke-linejoin:round;stroke-miterlimit:4;stroke-dasharray:none;stroke-opacity:1;paint-order:stroke fill markers"
           d="m 357.8504,275.81569 c 6.83036,11.83053 10.64152,15.84902 19.56094,9.20483 -0.48942,-1.82654 -2.07363,-0.15177 -3.41271,-0.62266 -2.29644,-2.4176 -5.91075,-9.65957 -8.86613,-14.59414 3.09177,-4.69192 7.8598,-10.72484 7.87483,-12.95536 -0.0859,-2.19016 -4.02423,-2.15555 -4.48781,-0.25403 -0.93238,4.30039 -3.05692,7.17017 -5.08053,10.16107 -8.07676,-14.83684 -10.97098,-12.59803 -18.0359,-8.04418 0.69551,1.83946 1.63355,-0.38172 2.96365,0.59273 l 7.79015,13.29407 c -2.77121,3.8617 -5.57447,7.69137 -8.12885,11.7699 -2.6807,3.64998 2.45719,5.09691 4.06442,2.11689 0.8822,-4.59349 3.64056,-7.31082 5.75794,-10.66912 z"
           id="path1257"
           inkscape:connector-curvature="0"
           sodipodi:nodetypes="ccccccccccccc" />
        <text
           xml:space="preserve"
           style="font-style:normal;font-variant:normal;font-weight:normal;font-stretch:normal;font-size:4.23333311px;line-height:1.25;font-family:Alegreya;-inkscape-font-specification:Alegreya;text-align:center;letter-spacing:0px;word-spacing:0px;text-orientation:upright;text-anchor:middle;fill:#000000;fill-opacity:1;stroke:none;stroke-width:2.11666656;stroke-miterlimit:4;stroke-dasharray:none"
           x="373.46207"
           y="248.55663"
           id="text4034-3"><tspan
             sodipodi:role="line"
             id="tspan4032-6"
             x="373.46207"
             y="248.55663"
             style="font-style:normal;font-variant:normal;font-weight:normal;font-stretch:normal;font-size:11.28888893px;font-family:aladin;-inkscape-font-specification:aladin;fill:#ffffff;fill-opacity:1;stroke:#000000;stroke-width:2.11666656;stroke-miterlimit:4;stroke-dasharray:none;stroke-opacity:1;paint-order:stroke fill markers">TM</tspan></text>
      </g>
    </g>
  </g>
</svg>
